<mxfile host="app.diagrams.net" modified="2023-05-23T00:31:07.055Z" agent="Mozilla/5.0 (Macintosh; Intel Mac OS X 10_15_7) AppleWebKit/537.36 (KHTML, like Gecko) Chrome/113.0.0.0 Safari/537.36" version="21.3.2" etag="tuSOmrjvTSTpHSaN3f8N" type="github">
  <diagram name="페이지-1" id="MLTm_nmqU4FvAv29BBlv">
    <mxGraphModel>
      <root>
        <mxCell id="0" />
        <mxCell id="1" parent="0" />
      </root>
    </mxGraphModel>
  </diagram>
</mxfile>
